HIERARCHY
ROOT	mixamorig:Hips
{
	OFFSET	0.000	0.000	0.000
	CHANNELS	6	Xposition	Yposition	Zposition	Yrotation	Xrotation	Zrotation
	JOINT	mixamorig:LeftUpLeg
	{
		OFFSET	8.100	0.000	-0.000
		CHANNELS	3	Yrotation	Xrotation	Zrotation
		JOINT	mixamorig:LeftLeg
		{
			OFFSET	-0.000	43.199	0.000
			CHANNELS	3	Yrotation	Xrotation	Zrotation
			JOINT	mixamorig:LeftFoot
			{
				OFFSET	-0.063	43.299	-0.000
				CHANNELS	3	Yrotation	Xrotation	Zrotation
				End Site
				{
					OFFSET	0.000	14.553	-0.000
				}
			}
		}
	}
	JOINT	mixamorig:RightUpLeg
	{
		OFFSET	-8.100	0.000	-0.000
		CHANNELS	3	Yrotation	Xrotation	Zrotation
		JOINT	mixamorig:RightLeg
		{
			OFFSET	-0.000	43.199	0.000
			CHANNELS	3	Yrotation	Xrotation	Zrotation
			JOINT	mixamorig:RightFoot
			{
				OFFSET	0.063	43.299	-0.000
				CHANNELS	3	Yrotation	Xrotation	Zrotation
				End Site
				{
					OFFSET	-0.000	14.553	0.000
				}
			}
		}
	}
	JOINT	mixamorig:Spine
	{
		OFFSET	0.000	8.484	-0.000
		CHANNELS	3	Yrotation	Xrotation	Zrotation
		JOINT	mixamorig:Spine1
		{
			OFFSET	0.000	15.175	0.000
			CHANNELS	3	Yrotation	Xrotation	Zrotation
			JOINT	mixamorig:Spine2
			{
				OFFSET	0.000	12.812	0.000
				CHANNELS	3	Yrotation	Xrotation	Zrotation
				JOINT	mixamorig:LeftShoulder
				{
					OFFSET	7.101	12.545	0.000
					CHANNELS	3	Yrotation	Xrotation	Zrotation
					JOINT	mixamorig:LeftArm
					{
						OFFSET	0.000	13.616	0.212
						CHANNELS	3	Yrotation	Xrotation	Zrotation
						JOINT	mixamorig:LeftForeArm
						{
							OFFSET	-0.000	26.099	0.000
							CHANNELS	3	Yrotation	Xrotation	Zrotation
							JOINT	mixamorig:LeftHand
							{
								OFFSET	0.000	28.739	0.000
								CHANNELS	3	Yrotation	Xrotation	Zrotation
								JOINT	mixamorig:LeftHandIndex1
								{
									OFFSET	-2.599	8.152	0.105
									CHANNELS	3	Yrotation	Xrotation	Zrotation
									JOINT	mixamorig:LeftHandIndex2
									{
										OFFSET	-0.000	4.690	0.000
										CHANNELS	3	Yrotation	Xrotation	Zrotation
										End Site
										{
											OFFSET	0.000	2.885	0.000
										}
									}
								}
								JOINT	mixamorig:LeftHandMiddle1
								{
									OFFSET	-0.557	8.310	0.105
									CHANNELS	3	Yrotation	Xrotation	Zrotation
									JOINT	mixamorig:LeftHandMiddle2
									{
										OFFSET	0.000	4.765	-0.000
										CHANNELS	3	Yrotation	Xrotation	Zrotation
										End Site
										{
											OFFSET	0.000	3.143	-0.000
										}
									}
								}
								JOINT	mixamorig:LeftHandPinky1
								{
									OFFSET	3.179	7.100	0.105
									CHANNELS	3	Yrotation	Xrotation	Zrotation
									JOINT	mixamorig:LeftHandPinky2
									{
										OFFSET	0.000	3.814	0.000
										CHANNELS	3	Yrotation	Xrotation	Zrotation
										End Site
										{
											OFFSET	-0.000	2.397	-0.000
										}
									}
								}
								JOINT	mixamorig:LeftHandRing1
								{
									OFFSET	1.453	7.868	0.105
									CHANNELS	3	Yrotation	Xrotation	Zrotation
									JOINT	mixamorig:LeftHandRing2
									{
										OFFSET	0.000	4.497	-0.000
										CHANNELS	3	Yrotation	Xrotation	Zrotation
										End Site
										{
											OFFSET	0.000	2.900	0.000
										}
									}
								}
								JOINT	mixamorig:LeftHandThumb1
								{
									OFFSET	-2.846	2.562	0.105
									CHANNELS	3	Yrotation	Xrotation	Zrotation
									JOINT	mixamorig:LeftHandThumb2
									{
										OFFSET	-0.290	3.666	-0.021
										CHANNELS	3	Yrotation	Xrotation	Zrotation
										End Site
										{
											OFFSET	-0.000	3.032	0.000
										}
									}
								}
							}
						}
					}
				}
				JOINT	mixamorig:Neck
				{
					OFFSET	-0.000	20.439	0.000
					CHANNELS	3	Yrotation	Xrotation	Zrotation
					JOINT	mixamorig:Head
					{
						OFFSET	-0.000	10.452	0.000
						CHANNELS	3	Yrotation	Xrotation	Zrotation
						End Site
						{
							OFFSET	3.719	6.163	8.747
						}
						End Site
						{
							OFFSET	-3.700	6.163	8.747
						}
					}
				}
				JOINT	mixamorig:RightShoulder
				{
					OFFSET	-7.101	12.545	0.000
					CHANNELS	3	Yrotation	Xrotation	Zrotation
					JOINT	mixamorig:RightArm
					{
						OFFSET	-0.000	13.618	0.000
						CHANNELS	3	Yrotation	Xrotation	Zrotation
						JOINT	mixamorig:RightForeArm
						{
							OFFSET	0.000	26.099	0.000
							CHANNELS	3	Yrotation	Xrotation	Zrotation
							JOINT	mixamorig:RightHand
							{
								OFFSET	-0.000	28.739	0.000
								CHANNELS	3	Yrotation	Xrotation	Zrotation
								JOINT	mixamorig:RightHandIndex1
								{
									OFFSET	2.599	8.152	0.105
									CHANNELS	3	Yrotation	Xrotation	Zrotation
									JOINT	mixamorig:RightHandIndex2
									{
										OFFSET	-0.000	4.690	0.000
										CHANNELS	3	Yrotation	Xrotation	Zrotation
										End Site
										{
											OFFSET	0.000	2.885	0.000
										}
									}
								}
								JOINT	mixamorig:RightHandMiddle1
								{
									OFFSET	0.557	8.310	0.105
									CHANNELS	3	Yrotation	Xrotation	Zrotation
									JOINT	mixamorig:RightHandMiddle2
									{
										OFFSET	0.000	4.765	0.000
										CHANNELS	3	Yrotation	Xrotation	Zrotation
										End Site
										{
											OFFSET	0.000	3.143	0.000
										}
									}
								}
								JOINT	mixamorig:RightHandPinky1
								{
									OFFSET	-3.179	7.100	0.105
									CHANNELS	3	Yrotation	Xrotation	Zrotation
									JOINT	mixamorig:RightHandPinky2
									{
										OFFSET	0.000	3.814	0.000
										CHANNELS	3	Yrotation	Xrotation	Zrotation
										End Site
										{
											OFFSET	-0.000	2.397	-0.000
										}
									}
								}
								JOINT	mixamorig:RightHandRing1
								{
									OFFSET	-1.453	7.868	0.105
									CHANNELS	3	Yrotation	Xrotation	Zrotation
									JOINT	mixamorig:RightHandRing2
									{
										OFFSET	0.000	4.497	0.000
										CHANNELS	3	Yrotation	Xrotation	Zrotation
										End Site
										{
											OFFSET	0.000	2.900	0.000
										}
									}
								}
								JOINT	mixamorig:RightHandThumb1
								{
									OFFSET	2.846	2.124	0.105
									CHANNELS	3	Yrotation	Xrotation	Zrotation
									JOINT	mixamorig:RightHandThumb2
									{
										OFFSET	0.000	3.995	0.000
										CHANNELS	3	Yrotation	Xrotation	Zrotation
										End Site
										{
											OFFSET	0.000	3.032	-0.000
										}
									}
								}
							}
						}
					}
				}
			}
		}
	}
}
MOTION
Frames:	10
Frame Time:	0.010
10.023	83.772	-2.975	-386.417	-9.458	-360.963	29.811	359.428	-174.284	-0.000	322.519	0.000	-203.431	87.583	-195.498	-5.163	349.185	-194.389	-0.000	325.010	0.000	18.552	73.681	35.562	-3.158	1.099	-360.844	-6.345	2.153	-361.752	0.000	-0.000	0.000	-69.684	87.988	190.237	-380.619	67.340	-365.615	-311.609	396.431	-257.320	-4.154	380.905	-4.100	-357.110	45.884	-3.180	-0.000	48.574	-0.000	-8.379	56.054	-15.671	-0.856	56.836	0.910	-51.940	61.396	-53.357	-0.002	65.943	-0.002	-23.945	58.358	-27.943	0.926	59.346	-1.130	-295.219	349.581	-327.223	-341.500	17.991	-19.051	12.203	364.434	-366.700	12.203	364.434	-366.700	-470.722	82.758	-393.738	-343.023	59.792	-19.576	-404.801	47.653	-107.603	-365.978	359.410	5.156	-18.011	68.268	-376.317	3.384	68.203	-0.454	-337.466	74.698	-333.300	4.235	75.847	3.314	-279.233	65.061	-273.487	-9.460	79.643	-4.943	-294.835	71.756	-290.097	-3.388	80.680	-0.694	-84.140	336.650	-27.826	-356.675	16.809	12.215	
9.987	83.750	-2.976	-386.355	-9.518	-360.925	29.724	359.464	-174.275	-0.000	322.443	0.000	-202.889	87.539	-194.935	-5.213	349.257	-194.417	-0.000	324.973	0.000	18.570	73.897	35.521	-3.139	1.104	-360.849	-6.309	2.163	-361.762	0.000	-0.000	0.000	-69.261	88.001	190.582	-380.916	67.012	-366.297	-312.385	396.625	-258.477	-4.079	380.770	-4.097	-357.127	45.740	-3.196	-0.000	48.317	-0.000	-8.140	55.804	-15.307	-0.815	56.530	0.891	-51.068	61.212	-52.410	-0.002	65.486	-0.002	-23.612	58.078	-27.588	0.883	58.975	-1.104	-295.230	349.587	-327.110	-341.501	17.941	-18.713	12.345	364.401	-366.753	12.345	364.401	-366.753	-470.298	82.655	-393.294	-343.191	59.467	-19.615	-403.847	47.797	-106.389	-365.107	359.813	5.970	-17.755	67.924	-376.111	3.233	67.894	-0.508	-338.617	74.280	-334.433	4.029	75.270	3.004	-281.041	64.888	-275.319	-8.854	78.900	-4.303	-296.550	71.589	-291.818	-3.007	80.028	-0.400	-84.181	336.775	-27.786	-356.531	17.179	12.329	
9.954	83.734	-2.982	-386.292	-9.582	-360.886	29.647	359.509	-174.263	-0.000	322.390	0.000	-202.358	87.535	-194.398	-5.252	349.340	-194.442	-0.000	324.951	0.000	18.599	74.082	35.480	-3.123	1.109	-360.854	-6.276	2.174	-361.771	0.000	-0.000	0.000	-68.523	88.009	191.243	-381.260	66.674	-367.005	-313.190	396.839	-259.653	-4.226	380.396	-4.521	-357.154	45.507	-3.221	-0.000	47.935	-0.000	-8.042	55.197	-14.248	-0.264	56.484	0.300	-49.811	60.940	-51.029	-0.002	64.823	-0.002	-22.912	57.884	-27.705	0.287	57.981	-0.379	-295.256	349.562	-326.949	-341.455	17.781	-18.236	12.486	364.365	-366.810	12.486	364.365	-366.810	-469.876	82.551	-392.858	-343.385	59.156	-19.666	-402.795	47.933	-105.133	-364.417	360.213	6.439	-17.566	67.618	-375.983	3.099	67.626	-0.548	-339.570	73.914	-335.371	3.864	74.773	2.750	-282.536	64.746	-276.853	-8.376	78.277	-3.810	-297.994	71.435	-293.276	-2.722	79.479	-0.188	-84.214	336.884	-27.760	-356.402	17.500	12.404	
9.919	83.726	-2.985	-386.228	-9.643	-360.845	29.581	359.572	-174.250	-0.000	322.377	0.000	-202.067	87.524	-194.112	-5.285	349.431	-194.469	-0.000	324.945	0.000	18.644	74.239	35.451	-3.108	1.113	-360.859	-6.246	2.181	-361.781	0.000	-0.000	0.000	-67.659	88.015	192.029	-381.649	66.326	-367.740	-314.026	397.049	-260.842	-4.267	380.220	-4.603	-357.174	45.329	-3.240	-0.000	47.641	-0.000	-7.760	54.963	-13.854	-0.266	56.150	0.311	-48.869	60.749	-49.962	-0.002	64.332	-0.002	-22.533	57.597	-27.189	0.289	57.623	-0.390	-295.291	349.497	-326.816	-341.354	17.526	-17.849	12.622	364.327	-366.862	12.622	364.327	-366.862	-469.553	82.443	-392.533	-343.537	58.866	-19.689	-401.691	48.057	-103.835	-363.503	360.864	7.271	-17.234	67.145	-375.723	2.896	67.210	-0.604	-340.904	73.345	-336.673	3.635	74.025	2.395	-284.724	64.540	-279.124	-7.680	77.324	-3.104	-300.123	71.165	-295.429	-2.365	78.694	0.068	-84.263	337.049	-27.732	-356.202	17.985	12.491	
9.880	83.724	-2.992	-386.162	-9.691	-360.807	29.490	359.633	-174.246	-0.000	322.385	0.000	-201.545	87.549	-193.578	-5.318	349.511	-194.489	-0.000	324.945	0.000	18.663	74.366	35.400	-3.093	1.113	-360.862	-6.216	2.181	-361.787	0.000	-0.000	0.000	-66.912	88.023	192.700	-382.074	65.972	-368.474	-314.898	397.237	-262.055	-4.645	379.842	-5.160	-357.206	45.049	-3.269	-0.000	47.228	-0.000	-7.401	54.662	-13.325	-0.264	55.726	0.320	-47.693	60.541	-48.571	-0.002	63.739	-0.002	-22.016	57.251	-26.467	0.287	57.167	-0.400	-295.360	349.345	-326.629	-341.126	16.996	-17.319	12.750	364.286	-366.918	12.750	364.286	-366.918	-469.278	82.337	-392.253	-343.651	58.592	-19.694	-400.552	48.189	-102.496	-362.827	361.276	7.637	-16.953	66.777	-375.483	2.740	66.883	-0.641	-341.851	72.893	-337.581	3.478	73.440	2.137	-286.414	64.347	-280.864	-7.186	76.569	-2.610	-301.732	70.917	-297.044	-2.134	78.080	0.223	-84.302	337.183	-27.710	-356.040	18.377	12.560	
9.839	83.726	-2.995	-386.096	-9.729	-360.773	29.419	359.692	-174.235	-0.000	322.412	0.000	-201.149	87.567	-193.191	-5.336	349.584	-194.502	-0.000	324.940	0.000	18.716	74.471	35.374	-3.077	1.113	-360.862	-6.185	2.182	-361.786	0.000	-0.000	0.000	-65.655	88.022	193.888	-382.490	65.595	-369.194	-314.929	397.363	-262.325	-5.178	379.519	-5.926	-357.235	44.786	-3.297	-0.000	46.851	-0.000	-7.141	54.407	-12.935	-0.260	55.382	0.324	-46.788	60.399	-47.464	-0.002	63.298	-0.002	-21.585	56.963	-25.879	0.283	56.783	-0.403	-295.425	349.185	-326.504	-340.894	16.481	-16.979	12.876	364.240	-366.983	12.876	364.240	-366.983	-468.843	82.238	-391.811	-343.721	58.336	-19.666	-399.413	48.335	-101.126	-362.003	361.696	8.228	-16.447	66.255	-374.974	2.522	66.408	-0.684	-343.019	72.216	-338.642	3.273	72.594	1.790	-288.777	64.007	-283.245	-6.541	75.477	-1.986	-303.893	70.484	-299.165	-1.861	77.214	0.395	-84.352	337.361	-27.689	-355.822	18.894	12.636	
9.796	83.730	-3.003	-386.028	-9.759	-360.745	29.295	359.746	-174.239	-0.000	322.446	0.000	-200.517	87.596	-192.517	-5.332	349.650	-194.503	-0.000	324.933	0.000	18.772	74.557	35.338	-3.059	1.115	-360.859	-6.149	2.186	-361.780	0.000	-0.000	0.000	-64.115	88.023	195.369	-382.900	65.198	-369.885	-315.800	397.526	-263.527	-5.952	379.386	-6.710	-357.291	44.283	-3.348	-0.000	46.225	-0.000	-6.837	53.966	-12.546	-0.251	54.845	0.327	-45.590	60.098	-46.108	-0.002	62.647	-0.002	-21.083	56.500	-25.237	0.274	56.231	-0.405	-295.522	348.925	-326.371	-340.524	15.682	-16.638	12.992	364.190	-367.048	12.992	364.190	-367.048	-468.312	82.149	-391.266	-343.721	58.081	-19.585	-398.334	48.484	-99.750	-361.439	361.822	8.398	-16.100	66.081	-374.229	2.566	65.940	-0.783	-343.830	71.629	-339.369	2.990	71.901	1.590	-290.654	63.692	-285.064	-6.213	74.593	-1.573	-305.592	70.064	-300.784	-1.809	76.544	0.503	-84.381	337.480	-27.694	-355.774	18.934	12.863	
9.750	83.738	-3.009	-385.951	-9.777	-360.728	29.190	359.785	-174.230	-0.000	322.485	0.000	-200.034	87.627	-192.017	-5.297	349.716	-194.486	-0.000	324.923	0.000	18.911	74.611	35.353	-3.043	1.117	-360.850	-6.116	2.192	-361.762	0.000	-0.000	0.000	-62.211	88.019	197.222	-383.283	64.775	-370.541	-316.643	397.655	-264.687	-6.583	379.522	-7.114	-357.349	43.743	-3.401	-0.000	45.620	-0.000	-6.652	53.557	-12.359	-0.240	54.385	0.323	-44.678	59.790	-45.149	-0.001	62.101	-0.002	-20.737	56.103	-24.834	0.261	55.781	-0.399	-295.599	348.716	-326.283	-340.231	15.050	-16.429	13.103	364.126	-367.124	13.103	364.126	-367.124	-467.549	82.094	-390.498	-343.700	57.795	-19.467	-397.322	48.645	-98.391	-360.812	361.836	8.739	-15.315	65.648	-372.914	2.537	65.179	-0.921	-344.853	70.714	-340.201	2.691	70.816	1.312	-293.329	63.170	-287.720	-5.696	73.272	-0.995	-307.929	69.405	-302.934	-1.558	75.510	0.674	-84.392	337.576	-27.760	-355.750	18.873	12.916	
9.705	83.746	-3.018	-385.865	-9.786	-360.717	29.115	359.808	-174.209	-0.000	322.526	0.000	-199.666	87.656	-191.672	-5.251	349.773	-194.461	-0.000	324.909	0.000	19.105	74.646	35.407	-3.030	1.117	-360.841	-6.089	2.191	-361.743	0.000	-0.000	0.000	-60.222	88.024	199.169	-383.656	64.338	-371.175	-317.460	397.743	-265.803	-7.606	379.678	-8.026	-357.449	42.782	-3.493	-0.000	44.569	-0.000	-6.455	52.880	-12.233	-0.218	53.662	0.311	-43.398	59.317	-43.821	-0.001	61.304	-0.002	-20.255	55.455	-24.337	0.238	55.066	-0.383	-295.693	348.457	-326.191	-339.869	14.273	-16.230	13.228	364.027	-367.184	13.228	364.027	-367.184	-466.849	82.036	-389.788	-343.643	57.494	-19.331	-396.373	48.799	-97.072	-360.362	361.745	8.814	-14.649	65.212	-371.813	2.502	64.538	-1.033	-345.598	69.984	-340.814	2.462	69.960	1.135	-295.364	62.784	-289.710	-5.271	72.227	-0.584	-309.710	68.881	-304.659	-1.476	74.720	0.778	-84.372	337.582	-27.862	-355.807	18.592	12.779	
9.660	83.755	-3.028	-385.762	-9.788	-360.717	28.959	359.825	-174.207	-0.000	322.563	0.000	-198.857	87.688	-190.822	-5.284	349.807	-194.438	-0.000	324.894	0.000	19.147	74.671	35.377	-3.019	1.118	-360.829	-6.066	2.195	-361.720	0.000	-0.000	0.000	-57.960	88.023	201.396	-383.981	63.897	-371.730	-318.283	397.798	-266.894	-8.295	379.918	-8.435	-357.533	41.940	-3.569	-0.000	43.673	-0.000	-6.320	52.304	-12.184	-0.203	53.068	0.301	-42.447	59.037	-42.727	-0.001	60.763	-0.002	-19.888	54.893	-23.989	0.221	54.462	-0.371	-295.756	348.284	-326.130	-339.632	13.756	-16.099	13.337	363.930	-367.249	13.337	363.930	-367.249	-466.238	81.965	-389.156	-343.597	57.178	-19.227	-395.430	48.920	-95.789	-359.705	361.705	9.196	-13.770	64.474	-370.560	2.362	63.757	-1.124	-346.571	69.084	-341.667	2.259	68.896	0.929	-297.978	62.257	-292.337	-4.747	70.848	-0.116	-312.007	68.239	-306.948	-1.339	73.665	0.876	-84.327	337.537	-28.020	-355.876	18.230	12.372	
